<svg xmlns="http://www.w3.org/2000/svg" width="69" height="70" viewBox="0 0 69 70">
  <defs>
    <style>
      .cls-1 {
        fill: #fff;
        fill-rule: evenodd;
      }
    </style>
  </defs>
  <path id="_" data-name="@" class="cls-1" d="M1106.73,1201.42c-11.06,0-17.4,7.96-17.4,20.27,0,9.69,4.18,16.9,13.66,16.9,5.38,0,8.89-3.15,10.68-7.36a9.8,9.8,0,0,0,10.01,7.66c9.86,0,16.28-9.84,16.28-23.43,0-15.39-12.02-29.58-33.23-29.58-20.84,0-35.77,14.71-35.77,35.14,0,21.25,14.04,34.84,35.69,34.84a51.967,51.967,0,0,0,17.55-3.15l-2.76-8.19a45.934,45.934,0,0,1-14.71,2.55c-16.43,0-25.1-10.06-25.1-26.05,0-15.62,8.97-26.51,25.02-26.51,15.53,0,22.7,8.04,22.7,21.1,0,12.17-2.61,15.92-6.19,15.92-2.54,0-3.51-1.95-3.51-8.18V1204.8A27.512,27.512,0,0,0,1106.73,1201.42Zm-2.17,29.73c-3.14,0-4.55-2.47-4.55-9.38,0-9.69,2.46-12.84,6.34-12.84a8.067,8.067,0,0,1,3.29.67v17.88A5.682,5.682,0,0,1,1104.56,1231.15Z" transform="translate(-1070.97 -1185.88)"/>
</svg>
