<?xml version="1.0" encoding="utf-8"?>
<!-- Generator: Adobe Illustrator 19.0.0, SVG Export Plug-In . SVG Version: 6.00 Build 0)  -->
<svg version="1.1" id="Шар_1" xmlns="http://www.w3.org/2000/svg" xmlns:xlink="http://www.w3.org/1999/xlink" x="0px" y="0px"
	 viewBox="0 0 44 44" style="enable-background:new 0 0 44 44;" xml:space="preserve">
<style type="text/css">
	.st0{fill:#FFFFFF;}
	.st1{fill:#3C5A9A;}
</style>
<path id="XMLID_3_" class="st0" d="M38,35.4c0,1.1-0.9,2-2,2H8c-1.1,0-2-0.9-2-2v-28c0-1.1,0.9-2,2-2h28c1.1,0,2,0.9,2,2V35.4z"/>
<path id="f" class="st1" d="M28,37.4v-12h4l1-5h-5v-2c0-2,1-3,3-3h2v-5c-1,0-2.2,0-4,0c-3.7,0-6,2.9-6,7v3h-4v5h4v12H28z"/>
</svg>
