<svg xmlns="http://www.w3.org/2000/svg" width="88" height="44.12" viewBox="0 0 88 44.12">
  <defs>
    <style>
      .cls-1 {
        fill: #e9f412;
        fill-rule: evenodd;
      }
    </style>
  </defs>
  <path id="Ellipse_2_copy" data-name="Ellipse 2 copy" class="cls-1" d="M884.741,2431.05H811.259c0-10.23-7.259-11.08-7.259-22.13,0-11,7.259-11.04,7.259-21.97h73.482c0,11.37,7.259,11.05,7.259,22.08C892,2420.04,884.741,2420.64,884.741,2431.05Zm-37.278-40.62a3.715,3.715,0,1,1,3.756-3.72A3.735,3.735,0,0,1,847.463,2390.43Zm0,37.14a3.715,3.715,0,1,1-3.756,3.72A3.734,3.734,0,0,1,847.463,2427.57Z" transform="translate(-804 -2386.94)"/>
</svg>
