<?xml version="1.0" encoding="utf-8"?>
<!-- Generator: Adobe Illustrator 19.0.0, SVG Export Plug-In . SVG Version: 6.00 Build 0)  -->
<svg version="1.1" id="Шар_1" xmlns="http://www.w3.org/2000/svg" xmlns:xlink="http://www.w3.org/1999/xlink" x="0px" y="0px"
	 viewBox="0 0 44 44" style="enable-background:new 0 0 44 44;" xml:space="preserve">
<style type="text/css">
	.st0{fill:#FFFFFF;}
	.st1{fill:#E84437;}
	.st2{fill:#35A853;}
	.st3{fill:#517CBE;}
	.st4{fill:#FABB0D;}
</style>
<path id="XMLID_1_" class="st0" d="M40.1,44H3.9C1.7,44,0,42.3,0,40.1V3.9C0,1.7,1.7,0,3.9,0h36.2C42.3,0,44,1.7,44,3.9v36.2
	C44,42.3,42.3,44,40.1,44z"/>
<g id="XMLID_7_">
	<path id="XMLID_5_" class="st1" d="M10.5,16.2c0.4-1,1.1-1.9,1.8-2.8c3-3.3,6.7-4.8,11.1-4.5c2.7,0.2,5.2,1.3,7.3,3
		c0.2,0.1,0.2,0.2,0,0.4c-1.1,1.1-2.2,2.2-3.3,3.3c-0.2,0.2-0.3,0.3-0.6,0.1c-4-3-10.1-1.3-11.8,3.5c0,0.1-0.1,0.2-0.1,0.3
		C13.4,18.4,12,17.3,10.5,16.2z"/>
	<path id="XMLID_4_" class="st2" d="M14.9,24.4c0.6,1.7,1.6,3.1,3.1,4c2.7,1.7,5.6,1.7,8.5,0.3c0.1,0,0.2-0.1,0.3-0.1
		c1.4,1.1,2.8,2.2,4.2,3.2c-1.5,1.5-3.3,2.4-5.3,2.9c-4.8,1.1-8.9,0-12.5-3.4c-1.1-1-2-2.2-2.6-3.6C12,26.7,13.4,25.6,14.9,24.4z"/>
	<path id="XMLID_3_" class="st3" d="M30.9,31.8c-1.4-1.1-2.8-2.1-4.2-3.2c1.2-0.9,2.1-2,2.5-3.5c0.1-0.5,0.1-0.5-0.3-0.5
		c-2.1,0-4.1,0-6.2,0c-0.4,0-0.4-0.1-0.4-0.4c0-1.4,0-2.9,0-4.3c0-0.3,0.1-0.4,0.3-0.4c3.9,0,7.7,0,11.6,0c0.2,0,0.3,0.1,0.4,0.3
		c0.4,2.3,0.2,4.5-0.4,6.7c-0.6,1.9-1.6,3.6-3,5C31.1,31.7,31,31.8,30.9,31.8z"/>
	<path id="XMLID_2_" class="st4" d="M14.9,24.4c-1.5,1.1-2.9,2.2-4.4,3.4c-0.6-1.2-1-2.4-1.2-3.8c-0.4-2.7,0-5.2,1.1-7.7
		c0-0.1,0.1-0.1,0.1-0.2c1.5,1.1,2.9,2.2,4.4,3.3C14.4,21.2,14.4,22.8,14.9,24.4z"/>
</g>
</svg>
