<svg xmlns="http://www.w3.org/2000/svg" width="25.5" height="25.5" viewBox="0 0 25.5 25.5">
  <defs>
    <style>
      .cls-1 {
        fill: #fff;
        fill-rule: evenodd;
      }
    </style>
  </defs>
  <path id="Password_icon" data-name="Password icon" class="cls-1" d="M603.441,660.854a0.359,0.359,0,0,0-.5-0.135l-0.912.545v-1.085a0.361,0.361,0,1,0-.722,0v1.085l-0.912-.545a0.358,0.358,0,0,0-.5.135,0.382,0.382,0,0,0,.13.512l0.917,0.551-0.917.55a0.384,0.384,0,0,0-.13.513,0.36,0.36,0,0,0,.5.135l0.912-.545v1.084a0.361,0.361,0,1,0,.722,0V662.57l0.912,0.545a0.361,0.361,0,0,0,.5-0.135,0.385,0.385,0,0,0-.131-0.513l-0.917-.55,0.917-.551A0.38,0.38,0,0,0,603.441,660.854Zm3.347,2.12a0.358,0.358,0,0,0,.5.135l0.912-.545v1.085a0.362,0.362,0,1,0,.723,0v-1.085l0.911,0.545a0.359,0.359,0,0,0,.5-0.135,0.383,0.383,0,0,0-.131-0.512l-0.917-.551,0.917-.55a0.384,0.384,0,0,0,.131-0.513,0.361,0.361,0,0,0-.5-0.135l-0.911.545v-1.084a0.362,0.362,0,1,0-.723,0v1.084l-0.912-.539a0.358,0.358,0,0,0-.5.135,0.382,0.382,0,0,0,.131.512l0.917,0.551-0.917.545A0.382,0.382,0,0,0,606.788,662.974Zm-0.65,2.828v0.659a0.284,0.284,0,0,0,.278.286h4.29a0.284,0.284,0,0,0,.278-0.286V665.8a0.284,0.284,0,0,0-.278-0.286h-4.29A0.281,0.281,0,0,0,606.138,665.8Zm10.456-18.4h-0.032v-1.468a4.592,4.592,0,0,0-4.5-4.679,4.507,4.507,0,0,0-4.353,4.56v0.141a0.379,0.379,0,0,0,.372.383h1.189a0.38,0.38,0,0,0,.372-0.383V645.91a2.6,2.6,0,0,1,2.331-2.66,2.525,2.525,0,0,1,2.65,2.558v1.586h-3.667V647.4h-3.389a1.187,1.187,0,0,0-1.136,1.2v6.638a1.187,1.187,0,0,0,1.168,1.2h8.989a1.187,1.187,0,0,0,1.168-1.2V648.6A1.18,1.18,0,0,0,616.594,647.4Zm-3.8,4.819a0.262,0.262,0,0,0-.115.243c0,0.486,0,.971,0,1.462h0a0.517,0.517,0,0,1-.268.492,0.554,0.554,0,0,1-.827-0.492v-1.468a0.258,0.258,0,0,0-.105-0.232,1.128,1.128,0,0,1-.356-1.37,1.091,1.091,0,0,1,1.194-.653,1.121,1.121,0,0,1,.912,1.1A1.039,1.039,0,0,1,612.791,652.219Zm0.23,13.583v0.659a0.284,0.284,0,0,0,.278.286h4.29a0.284,0.284,0,0,0,.278-0.286V665.8a0.284,0.284,0,0,0-.278-0.286H613.3A0.284,0.284,0,0,0,613.021,665.8Zm0.65-2.828a0.359,0.359,0,0,0,.5.135l0.911-.545v1.085a0.362,0.362,0,1,0,.723,0v-1.085l0.911,0.545a0.359,0.359,0,0,0,.5-0.135,0.382,0.382,0,0,0-.131-0.512l-0.917-.551,0.917-.55a0.383,0.383,0,0,0,.131-0.513,0.361,0.361,0,0,0-.5-0.135l-0.911.545v-1.084a0.362,0.362,0,1,0-.723,0v1.084l-0.911-.545a0.361,0.361,0,0,0-.5.135,0.383,0.383,0,0,0,.131.513l0.917,0.55-0.917.551A0.382,0.382,0,0,0,613.671,662.974Zm10.8,2.542h-4.29a0.284,0.284,0,0,0-.277.286v0.659a0.284,0.284,0,0,0,.277.286h4.29a0.284,0.284,0,0,0,.278-0.286V665.8A0.284,0.284,0,0,0,624.472,665.516Zm-24.944,1.231h4.29a0.284,0.284,0,0,0,.277-0.286V665.8a0.284,0.284,0,0,0-.277-0.286h-4.29a0.284,0.284,0,0,0-.278.286v0.659A0.284,0.284,0,0,0,599.528,666.747Zm21.031-3.773a0.359,0.359,0,0,0,.5.135l0.911-.545v1.085a0.362,0.362,0,1,0,.723,0v-1.085l0.912,0.545a0.358,0.358,0,0,0,.5-0.135,0.382,0.382,0,0,0-.131-0.512l-0.916-.551,0.916-.55a0.383,0.383,0,0,0,.131-0.513,0.36,0.36,0,0,0-.5-0.135l-0.912.545v-1.084a0.362,0.362,0,1,0-.723,0v1.084l-0.911-.545a0.361,0.361,0,0,0-.5.135,0.384,0.384,0,0,0,.131.513l0.917,0.55-0.917.551A0.377,0.377,0,0,0,620.559,662.974Z" transform="translate(-599.25 -641.25)"/>
</svg>
