<svg xmlns="http://www.w3.org/2000/svg" width="72" height="70" viewBox="0 0 72 70">
  <defs>
    <style>
      .cls-1 {
        fill: #fff;
        fill-rule: evenodd;
      }
    </style>
  </defs>
  <path id="Forma_1" data-name="Forma 1" class="cls-1" d="M800.034,1529.26a2.292,2.292,0,0,1-1.5,1.95l-19.041,6.82a1,1,0,0,1-1.5-.88v-60.16a2.293,2.293,0,0,1,1.5-1.95l19.041-6.82a1,1,0,0,1,1.5.88v60.16Zm24.983,7.89a1,1,0,0,1-1.5.88l-19.041-6.82a2.293,2.293,0,0,1-1.5-1.95V1469.1a1,1,0,0,1,1.5-.88l19.041,6.82a2.294,2.294,0,0,1,1.5,1.95v60.16ZM850,1529.26a2.292,2.292,0,0,1-1.5,1.95l-19.041,6.82a1,1,0,0,1-1.5-.88v-60.16a2.293,2.293,0,0,1,1.5-1.95l19.041-6.82a1,1,0,0,1,1.5.88v60.16Z" transform="translate(-778 -1468.13)"/>
</svg>
