<?xml version="1.0" encoding="utf-8"?>
<!-- Generator: Adobe Illustrator 19.0.0, SVG Export Plug-In . SVG Version: 6.00 Build 0)  -->
<svg version="1.1" id="Шар_1" xmlns="http://www.w3.org/2000/svg" xmlns:xlink="http://www.w3.org/1999/xlink" x="0px" y="0px"
	 viewBox="-270 362 70 70" style="enable-background:new -270 362 70 70;" xml:space="preserve">
<style type="text/css">
	.st0{fill:#FFFFFF;}
	.st1{fill:none;enable-background:new    ;}
	.st2{fill:#541484;}
</style>
<rect x="-270" y="362" class="st0" width="70" height="70"/>
<path class="st1" d="z"/>
<g>
	<g>
		<g>
			<path class="st2" d="M-215.5,398.9l-19.4-23.1c-0.3-0.4-0.8-0.5-1.3-0.3c-0.5,0.2-0.8,0.6-0.8,1.1V407c0,0.5,0.3,1,0.8,1.1
				l0.4,0.1c0.4,0,0.7-0.2,0.9-0.5l5.2-7l3.6,10.4c0.5,1.3,1.9,2,3.2,1.6c1.3-0.5,2-1.9,1.6-3.2l-3.6-10.2l8.2,1.6
				c0.5,0.1,1-0.1,1.2-0.6C-215.2,399.8-215.2,399.3-215.5,398.9z"/>
		</g>
	</g>
</g>
</svg>
