<svg xmlns="http://www.w3.org/2000/svg" width="73.031" height="70" viewBox="0 0 73.031 70">
  <defs>
    <style>
      .cls-1 {
        fill: #fff;
        fill-rule: evenodd;
      }
    </style>
  </defs>
  <path id="_" data-name="%" class="cls-1" d="M830.42,1186.16l-42.211,64.29,8.844,5.71,42.211-64.29Zm-37.1,2.76c-9.026,0-16.228,6.45-16.228,16.58s7.2,16.58,16.228,16.58c9.117,0,16.228-6.45,16.228-16.58S802.432,1188.92,793.315,1188.92Zm0,8.75c4.74,0,5.835,3.96,5.835,7.83,0,3.96-1.1,7.83-5.835,7.83s-5.926-3.96-5.926-7.83C787.389,1201.54,788.574,1197.67,793.315,1197.67Zm40.57,23.3c-9.117,0-16.319,6.36-16.319,16.49,0,10.23,7.2,16.58,16.319,16.58s16.228-6.35,16.228-16.58C850.113,1227.33,843,1220.97,833.885,1220.97Zm0,8.76c4.741,0,5.835,3.86,5.835,7.73,0,3.96-1.094,7.93-5.835,7.93s-5.926-4.06-5.926-7.93S829.144,1229.73,833.885,1229.73Z" transform="translate(-777.094 -1186.16)"/>
</svg>
