<svg xmlns="http://www.w3.org/2000/svg" width="73" height="70" viewBox="0 0 73 70">
  <defs>
    <style>
      .cls-1 {
        fill: #fff;
        fill-rule: evenodd;
      }
    </style>
  </defs>
  <path id="_" data-name=" " class="cls-1" d="M1435.28,1212.99c0-1.32-1.4-1.85-2.46-2.03l-22.02-3.22-9.87-20.07a2.184,2.184,0,0,0-4.3,0l-9.87,20.07-22.02,3.22c-1.1.18-2.46,0.71-2.46,2.03a3.407,3.407,0,0,0,1.1,2.12l15.97,15.61-3.77,22.06a5.148,5.148,0,0,0-.09.88,1.927,1.927,0,0,0,1.84,2.2,3.671,3.671,0,0,0,1.75-.53l19.7-10.41,19.7,10.41a3.544,3.544,0,0,0,1.75.53c1.28,0,1.8-1.06,1.8-2.2a6.408,6.408,0,0,0-.04-0.88l-3.77-22.06,15.92-15.61A3.274,3.274,0,0,0,1435.28,1212.99Z" transform="translate(-1362.28 -1185.88)"/>
</svg>
