<?xml version="1.0" encoding="utf-8"?>
<!-- Generator: Adobe Illustrator 19.0.0, SVG Export Plug-In . SVG Version: 6.00 Build 0)  -->
<svg version="1.1" id="Шар_1" xmlns="http://www.w3.org/2000/svg" xmlns:xlink="http://www.w3.org/1999/xlink" x="0px" y="0px"
	 viewBox="0 0 126.8 126.8" style="enable-background:new 0 0 126.8 126.8;" xml:space="preserve">
<style type="text/css">
	.st0{clip-path:url(#SVGID_2_);fill:#558DFD;}
	.st1{clip-path:url(#SVGID_2_);fill:#FFFFFF;}
</style>
<g>
	<defs>
		<rect id="SVGID_1_" width="126.8" height="126.8"/>
	</defs>
	<clipPath id="SVGID_2_">
		<use xlink:href="#SVGID_1_"  style="overflow:visible;"/>
	</clipPath>
	<path class="st0" d="M126.8,63.4c0,35-28.4,63.4-63.4,63.4C28.4,126.8,0,98.4,0,63.4C0,28.4,28.4,0,63.4,0
		C98.4,0,126.8,28.4,126.8,63.4"/>
	<path class="st1" d="M47.1,58.3c0-1-0.8-1.8-1.8-1.8H30.9c-1,0-1.8,0.8-1.8,1.8v34.4c0,1,0.8,1.8,1.8,1.8h14.4c1,0,1.8-0.8,1.8-1.8
		V58.3z"/>
	<path class="st1" d="M96.3,66.5c0-2.1-0.7-3.9-1.8-4.7c1.4-0.8,2.4-3.8,2.4-6.4c0-3.3-1.6-6.7-3.6-6.7h-0.9l-19,1
		c0,0,2.2-3.8,2.6-6.1c0.4-2.3,2.5-11.8,0.6-16.1c-1.9-4.3-9.5-3.8-9.5,2.8v3.4v0.2v0.7c0,2.7-5.4,7.2-7.6,9.3
		c-1.4,1.1-8.4,10.5-8.4,14.3v29.3c0,1.6,5,1.2,3.1,1.2h36.2l0,0.1c1.8-0.1,3.2-2.1,3.2-4.7c0-1.7-0.6-3.1-1.5-4
		c1.8,0,3.3-2,3.3-4.6c0-1.7-0.6-3.1-1.5-3.9C95.2,71,96.3,68.9,96.3,66.5 M91.3,71L91.3,71C91.3,71,91.3,71,91.3,71
		C91.3,71,91.3,71,91.3,71"/>
</g>
</svg>
