<?xml version="1.0" encoding="utf-8"?>
<!-- Generator: Adobe Illustrator 19.0.0, SVG Export Plug-In . SVG Version: 6.00 Build 0)  -->
<svg version="1.1" id="Layer_1" xmlns="http://www.w3.org/2000/svg" xmlns:xlink="http://www.w3.org/1999/xlink" x="0px" y="0px"
	 viewBox="0 0 126.8 126.8" style="enable-background:new 0 0 126.8 126.8;" xml:space="preserve">
<style type="text/css">
	.st0{fill:#FFD96A;}
</style>
<g id="XMLID_1_">
	<circle id="XMLID_51_" class="st0" cx="63.4" cy="63.4" r="63.4"/>
	<ellipse id="XMLID_50_" cx="63.7" cy="90.3" rx="18.4" ry="24.9"/>
	
		<ellipse id="XMLID_49_" transform="matrix(0.9887 0.1502 -0.1502 0.9887 7.7195 -4.6194)" cx="34.4" cy="48.8" rx="8.7" ry="13.6"/>
	
		<ellipse id="XMLID_48_" transform="matrix(-0.9887 0.1502 -0.1502 -0.9887 194.2044 82.9162)" cx="94" cy="48.8" rx="8.7" ry="13.6"/>
	<g id="XMLID_2_">
		<path id="XMLID_47_" d="M25.6,23.7c-0.7,0-1.4-0.3-1.9-0.8c-1-1.1-1-2.7,0-3.8C34,9.1,42.5,14.2,44.9,16c1.2,0.9,1.4,2.6,0.5,3.7
			c-0.9,1.2-2.6,1.4-3.7,0.5c-2.4-1.8-7.4-3.9-14.1,2.8C27,23.5,26.3,23.7,25.6,23.7z"/>
	</g>
	<g id="XMLID_3_">
		<path id="XMLID_46_" d="M101.9,23.7c0.7,0,1.4-0.3,1.9-0.8c1-1.1,1-2.7,0-3.8C93.5,9.1,85,14.2,82.7,16c-1.2,0.9-1.4,2.6-0.5,3.7
			c0.9,1.2,2.6,1.4,3.7,0.5c2.4-1.8,7.4-3.9,14.1,2.8C100.5,23.5,101.2,23.7,101.9,23.7z"/>
	</g>
</g>
</svg>
